<?xml version="1.0" encoding="utf-8"?>
<!-- Generator: Adobe Illustrator 16.0.4, SVG Export Plug-In . SVG Version: 6.00 Build 0)  -->
<!DOCTYPE svg PUBLIC "-//W3C//DTD SVG 1.1//EN" "http://www.w3.org/Graphics/SVG/1.1/DTD/svg11.dtd">
<svg version="1.1" id="Ebene_1" xmlns="http://www.w3.org/2000/svg" xmlns:xlink="http://www.w3.org/1999/xlink" x="0px" y="0px"
	 width="691.654px" height="385.512px" viewBox="0 0 691.654 385.512" enable-background="new 0 0 691.654 385.512"
	 xml:space="preserve">
<rect x="0.125" y="0.125" fill="#FFFFFF" width="691.412" height="384.462"/>
<g>
	<defs>
		<rect id="SVGID_1_" width="691.654" height="385.512"/>
	</defs>
	<clipPath id="SVGID_2_">
		<use xlink:href="#SVGID_1_"  overflow="visible"/>
	</clipPath>
	<path clip-path="url(#SVGID_2_)" d="M598.433,234.492v-3.065h-6.846l6.846-16.086v-2.604h-10.164v3.024h6.384l-6.846,16.128v2.604
		H598.433z M583.858,234.492v-3.065c-2.268,0-3.485-0.966-3.485-3.276v-12.768h3.359v-2.646h-3.359v-5.964h-3.402v5.964h-2.479
		v2.646h2.479v12.894c0,2.269,0.672,3.864,1.89,4.872C580.246,234.324,581.927,234.492,583.858,234.492 M569.285,234.492v-21.756
		h-3.401v16.002c0,2.017-1.134,3.024-2.562,3.024c-1.428,0-2.604-1.008-2.604-3.024v-16.002h-3.402v16.002
		c0,2.353,0.42,3.528,1.302,4.494c0.925,1.05,2.059,1.596,3.696,1.596c0.882,0,1.68-0.252,2.353-0.672
		c0.462-0.294,1.05-0.84,1.344-1.344v1.68H569.285z M550.764,234.492V218.49c0-2.352-0.42-3.527-1.302-4.494
		c-0.925-1.05-2.059-1.596-3.696-1.596c-0.882,0-1.68,0.252-2.352,0.672c-0.421,0.252-0.925,0.756-1.219,1.218v-9.701h-3.401v29.903
		h3.401V218.49c0-2.016,1.135-3.023,2.562-3.023s2.604,1.008,2.604,3.023v16.002H550.764z M532.914,228.444h-3.36
		c0,1.008-0.126,1.849-0.714,2.521c-0.462,0.504-1.051,0.798-1.849,0.798s-1.512-0.336-1.932-0.924
		c-0.798-1.093-0.882-3.318-0.882-7.225s0.084-6.174,0.882-7.266c0.42-0.588,1.134-0.924,1.932-0.924
		c0.841,0,1.429,0.294,1.891,0.84c0.588,0.714,0.672,1.638,0.672,2.52h3.36c-0.043-1.806-0.421-3.653-1.723-4.956
		c-1.092-1.092-2.478-1.428-4.242-1.428c-1.848,0-3.485,0.546-4.578,2.017c-1.344,1.722-1.596,4.787-1.596,9.197
		s0.252,7.477,1.596,9.198c1.093,1.47,2.73,2.016,4.578,2.016c1.765,0,3.276-0.462,4.284-1.512
		C532.367,232.182,532.871,230.502,532.914,228.444 M515.693,228.57c0-1.386-0.336-2.604-0.924-3.485
		c-0.63-1.009-1.596-1.765-3.066-2.479l-2.771-1.386c-0.882-0.42-1.512-0.924-1.806-1.428c-0.252-0.463-0.378-0.967-0.378-1.597
		c0-0.798,0.252-1.554,0.798-2.1c0.462-0.462,1.092-0.714,1.89-0.714c0.672,0,1.344,0.21,1.848,0.756
		c0.547,0.588,0.799,1.344,0.799,2.604h3.359c0-2.142-0.63-3.695-1.764-4.788c-1.05-1.05-2.521-1.554-4.242-1.554
		c-1.68,0-3.192,0.546-4.284,1.638c-1.092,1.093-1.806,2.521-1.806,4.41c0,1.134,0.21,2.059,0.672,2.856
		c0.546,0.924,1.554,1.806,2.982,2.52l2.813,1.429c0.882,0.462,1.512,0.924,1.933,1.554c0.378,0.588,0.546,1.218,0.546,1.974
		c0,0.882-0.336,1.681-0.841,2.185c-0.546,0.546-1.176,0.798-2.058,0.798c-0.672,0-1.428-0.252-1.932-0.756
		c-0.63-0.672-0.925-1.513-0.925-2.646h-3.359c0,1.975,0.588,3.486,1.848,4.788c1.05,1.092,2.604,1.68,4.368,1.68
		s3.276-0.504,4.452-1.722C514.938,232.014,515.693,230.502,515.693,228.57 M497.593,234.492V218.49c0-2.352-0.42-3.527-1.302-4.494
		c-0.925-1.05-2.059-1.596-3.696-1.596c-0.882,0-1.68,0.252-2.353,0.672c-0.462,0.294-1.05,0.84-1.344,1.345v-1.681h-3.275v21.756
		h3.401V218.49c0-2.016,1.134-3.023,2.562-3.023c1.428,0,2.604,1.008,2.604,3.023v16.002H497.593z M476.131,221.85h-5.544
		c0-2.94,0.21-4.704,0.882-5.502c0.42-0.504,1.008-0.924,1.89-0.924s1.513,0.42,1.933,0.924
		C475.963,217.146,476.131,218.91,476.131,221.85 M479.532,224.412c0-4.661-0.084-8.357-1.89-10.332
		c-1.134-1.218-2.52-1.68-4.284-1.68c-1.722,0-3.149,0.504-4.284,1.68c-1.68,1.723-1.89,4.956-1.89,9.534s0.252,7.812,1.932,9.534
		c1.135,1.176,2.395,1.68,4.284,1.68c1.723,0,3.276-0.462,4.326-1.596c1.176-1.26,1.68-2.855,1.722-4.788h-3.359
		c0,1.008-0.294,1.933-0.756,2.479c-0.505,0.546-1.135,0.84-1.933,0.84c-0.882,0-1.47-0.42-1.89-0.924
		c-0.756-0.967-0.924-2.982-0.924-6.427H479.532z M462.69,234.492v-3.065c-2.226,0-3.233-1.134-3.233-3.276v-23.562h-3.402v23.688
		c0,2.395,0.756,3.906,1.932,4.872C459.289,234.24,460.843,234.492,462.69,234.492 M449.504,234.492V218.49
		c0-2.352-0.42-3.527-1.303-4.494c-0.924-1.05-2.058-1.596-3.695-1.596c-0.882,0-1.681,0.252-2.353,0.672
		c-0.42,0.252-0.924,0.756-1.218,1.218v-9.701h-3.402v29.903h3.402V218.49c0-2.016,1.134-3.023,2.562-3.023
		c1.428,0,2.604,1.008,2.604,3.023v16.002H449.504z M427.411,228.444c0,2.017-1.092,3.402-2.729,3.402
		c-1.764,0-2.646-1.386-2.646-3.654c0-1.176,0.379-2.394,1.009-2.981c0.672-0.631,1.386-0.799,2.436-0.799h1.932V228.444z
		 M430.813,234.492V218.7c0-2.226-0.672-3.695-1.722-4.788c-1.008-1.008-2.479-1.512-4.242-1.512c-1.68,0-3.234,0.63-4.2,1.596
		c-1.302,1.303-1.68,2.94-1.68,4.62h3.401c0-1.176,0.211-1.89,0.799-2.52c0.42-0.42,0.924-0.714,1.68-0.714
		c1.68,0,2.562,1.092,2.562,3.107v3.444h-2.226c-2.268,0-3.528,0.504-4.62,1.47c-1.26,1.134-1.932,2.898-1.932,4.914
		c0,2.269,0.546,3.906,1.386,4.872c1.008,1.134,2.142,1.638,3.738,1.638c1.176,0,1.89-0.294,2.562-0.798
		c0.42-0.336,0.924-0.882,1.261-1.47v1.932H430.813z M414.814,215.676V212.4c-1.386,0-2.562,0.378-3.57,1.092
		c-0.546,0.378-1.176,0.966-1.512,1.555v-2.311h-3.275v21.756h3.401v-14.825c0-2.479,1.638-3.99,3.948-3.99H414.814z
		 M401.124,234.492v-3.065c-2.269,0-3.486-0.966-3.486-3.276v-12.768h3.36v-2.646h-3.36v-5.964h-3.402v5.964h-2.478v2.646h2.478
		v12.894c0,2.269,0.672,3.864,1.891,4.872C397.512,234.324,399.191,234.492,401.124,234.492 M387.138,226.47
		c0-4.704-0.798-6.804-4.2-8.19l-3.36-1.386c-2.394-1.008-2.855-1.89-2.855-4.83c0-1.554,0.336-2.771,1.05-3.57
		c0.504-0.546,1.26-0.924,2.311-0.924c1.134,0,1.932,0.378,2.436,1.008c0.756,0.925,0.924,2.017,0.924,3.612h3.612
		c0-2.729-0.462-4.662-1.974-6.132c-1.135-1.092-2.772-1.722-4.956-1.722c-1.975,0-3.57,0.63-4.746,1.722
		c-1.513,1.386-2.269,3.528-2.269,6.132c0,4.536,1.008,6.216,4.074,7.477l3.402,1.386c2.436,1.008,2.939,2.058,2.939,5.502
		c0,1.974-0.168,3.107-0.966,3.99c-0.546,0.588-1.344,0.966-2.562,0.966c-1.135,0-1.975-0.378-2.479-0.924
		c-0.798-0.841-1.008-1.933-1.008-3.906h-3.612c0,3.191,0.462,4.914,1.849,6.3c1.176,1.176,2.939,1.806,5.25,1.806
		c2.394,0,4.157-0.714,5.292-1.806C386.718,231.552,387.138,229.578,387.138,226.47 M358.577,215.676V212.4
		c-1.386,0-2.562,0.378-3.569,1.092c-0.546,0.378-1.176,0.966-1.513,1.555v-2.311h-3.275v21.756h3.401v-14.825
		c0-2.479,1.639-3.99,3.948-3.99H358.577z M342.451,205.806h-3.402v3.444h3.402V205.806z M335.898,205.806h-3.444v3.444h3.444
		V205.806z M343.333,234.492v-21.756h-3.402v16.002c0,2.017-1.134,3.024-2.562,3.024c-1.428,0-2.604-1.008-2.604-3.024v-16.002
		h-3.402v16.002c0,2.353,0.42,3.528,1.302,4.494c0.924,1.05,2.058,1.596,3.696,1.596c0.882,0,1.68-0.252,2.352-0.672
		c0.462-0.294,1.05-0.84,1.344-1.344v1.68H343.333z M326.323,215.382v-2.646h-3.36v-1.974c0-2.185,1.134-3.276,3.36-3.276v-3.065
		c-1.848,0-3.528,0.252-4.872,1.386c-1.218,1.008-1.89,2.562-1.89,4.83v2.1h-2.478v2.646h2.478v19.109h3.402v-19.109H326.323z"/>
	<path clip-path="url(#SVGID_2_)" d="M479.578,193.492v-3.066c-2.268,0-3.485-0.966-3.485-3.276v-12.768h3.359v-2.646h-3.359v-5.964
		h-3.402v5.964h-2.478v2.646h2.478v12.894c0,2.268,0.672,3.864,1.891,4.872C475.967,193.324,477.646,193.492,479.578,193.492
		 M465.551,193.492V177.49c0-2.352-0.378-3.528-1.26-4.494c-0.925-1.05-2.017-1.596-3.906-1.596c-0.798,0-1.807,0.252-2.479,0.672
		c-0.63,0.378-1.26,1.008-1.722,1.596c-0.882-1.344-2.478-2.268-4.158-2.268c-0.882,0-1.68,0.252-2.352,0.672
		c-0.462,0.294-1.05,0.84-1.344,1.344v-1.68h-3.276v21.756h3.402V177.49c0-2.016,1.134-3.024,2.562-3.024s2.604,1.008,2.604,3.024
		v16.002h3.401V177.49c0-2.016,1.134-3.024,2.562-3.024c1.428,0,2.562,1.008,2.562,3.024v16.002H465.551z M435.353,187.444
		c0,2.016-1.092,3.402-2.729,3.402c-1.765,0-2.646-1.386-2.646-3.654c0-1.176,0.378-2.394,1.008-2.982
		c0.672-0.63,1.386-0.798,2.437-0.798h1.932V187.444z M438.755,193.492V177.7c0-2.226-0.672-3.696-1.723-4.788
		c-1.008-1.008-2.478-1.512-4.241-1.512c-1.681,0-3.234,0.63-4.2,1.596c-1.302,1.302-1.681,2.94-1.681,4.62h3.402
		c0-1.176,0.21-1.89,0.798-2.52c0.42-0.42,0.924-0.714,1.681-0.714c1.68,0,2.562,1.092,2.562,3.108v3.444h-2.226
		c-2.269,0-3.528,0.504-4.62,1.47c-1.261,1.134-1.933,2.898-1.933,4.914c0,2.268,0.546,3.906,1.387,4.872
		c1.008,1.134,2.142,1.638,3.737,1.638c1.177,0,1.891-0.294,2.562-0.798c0.42-0.336,0.924-0.882,1.26-1.47v1.932H438.755z
		 M422.249,187.57c0-1.386-0.337-2.604-0.925-3.486c-0.63-1.008-1.596-1.764-3.065-2.478l-2.772-1.386
		c-0.882-0.42-1.512-0.924-1.806-1.428c-0.252-0.462-0.378-0.966-0.378-1.596c0-0.798,0.252-1.554,0.798-2.1
		c0.462-0.462,1.092-0.714,1.89-0.714c0.672,0,1.345,0.21,1.849,0.756c0.546,0.588,0.798,1.344,0.798,2.604h3.359
		c0-2.142-0.63-3.696-1.764-4.788c-1.05-1.05-2.52-1.554-4.242-1.554c-1.68,0-3.191,0.546-4.283,1.638
		c-1.093,1.092-1.807,2.52-1.807,4.41c0,1.134,0.21,2.058,0.672,2.856c0.546,0.924,1.555,1.806,2.982,2.52l2.813,1.428
		c0.883,0.462,1.513,0.924,1.933,1.554c0.378,0.588,0.546,1.218,0.546,1.974c0,0.882-0.336,1.68-0.84,2.184
		c-0.546,0.546-1.176,0.798-2.059,0.798c-0.672,0-1.428-0.252-1.932-0.756c-0.63-0.672-0.924-1.512-0.924-2.646h-3.36
		c0,1.974,0.588,3.486,1.849,4.788c1.05,1.092,2.604,1.68,4.367,1.68c1.765,0,3.276-0.503,4.452-1.722
		C421.492,191.014,422.249,189.502,422.249,187.57 M401.795,180.85h-5.544c0-2.94,0.21-4.704,0.882-5.502
		c0.42-0.504,1.008-0.924,1.89-0.924s1.512,0.42,1.933,0.924C401.627,176.146,401.795,177.91,401.795,180.85 M405.196,183.412
		c0-4.662-0.084-8.358-1.89-10.332c-1.134-1.218-2.521-1.68-4.284-1.68c-1.722,0-3.149,0.504-4.284,1.68
		c-1.68,1.722-1.89,4.956-1.89,9.534c0,4.578,0.252,7.812,1.932,9.534c1.135,1.176,2.395,1.68,4.284,1.68
		c1.722,0,3.276-0.461,4.326-1.596c1.176-1.26,1.68-2.856,1.722-4.788h-3.359c0,1.008-0.294,1.932-0.757,2.478
		c-0.504,0.546-1.134,0.84-1.932,0.84c-0.882,0-1.47-0.42-1.89-0.924c-0.756-0.966-0.924-2.982-0.924-6.426H405.196z
		 M383.692,187.57c0,1.176-0.336,2.016-0.882,2.562c-0.462,0.462-1.092,0.63-1.764,0.63c-0.756,0-1.429-0.336-1.849-0.924
		c-0.798-1.092-0.882-3.318-0.882-7.224c0-3.906,0.084-6.174,0.882-7.266c0.42-0.588,1.093-0.924,1.849-0.924
		c0.672,0,1.302,0.21,1.764,0.672c0.546,0.546,0.882,1.344,0.882,2.52V187.57z M387.095,193.492v-29.904h-3.402v9.66
		c-0.294-0.462-0.798-0.966-1.218-1.218c-0.672-0.42-1.47-0.63-2.352-0.63c-1.597,0-2.73,0.546-3.612,1.596
		c-1.386,1.638-1.596,4.578-1.596,9.618c0,5.04,0.21,7.98,1.596,9.618c0.966,1.134,2.142,1.596,3.612,1.596
		c0.882,0,1.68-0.252,2.352-0.672c0.42-0.252,1.092-0.924,1.302-1.344v1.68H387.095z M369.33,193.492V177.49
		c0-2.352-0.421-3.528-1.303-4.494c-0.924-1.05-2.058-1.596-3.695-1.596c-0.883,0-1.681,0.252-2.353,0.672
		c-0.462,0.294-1.05,0.84-1.344,1.344v-1.68h-3.276v21.756h3.402V177.49c0-2.016,1.134-3.024,2.562-3.024
		c1.429,0,2.604,1.008,2.604,3.024v16.002H369.33z M350.892,193.492v-21.756h-3.402v16.002c0,2.016-1.134,3.024-2.562,3.024
		c-1.428,0-2.604-1.008-2.604-3.024v-16.002h-3.402v16.002c0,2.352,0.42,3.528,1.302,4.494c0.924,1.05,2.058,1.596,3.696,1.596
		c0.882,0,1.68-0.252,2.352-0.672c0.462-0.294,1.05-0.84,1.344-1.344v1.68H350.892z M329.095,171.61c0,3.402-1.26,4.788-3.864,4.788
		h-2.562v-9.576h2.562C327.834,166.822,329.095,167.956,329.095,171.61 M329.305,184.882c0,4.116-1.302,5.376-4.032,5.376h-2.604
		v-10.752h2.604C327.96,179.506,329.305,181.06,329.305,184.882 M332.917,184.882c0-2.016-0.168-4.2-1.722-5.838
		c-0.504-0.546-1.134-0.924-1.848-1.134c0.63-0.21,1.218-0.63,1.722-1.134c1.428-1.428,1.638-3.192,1.638-5.25
		c0-3.024-0.42-4.746-1.722-6.132c-1.218-1.26-2.856-1.806-5.46-1.806h-6.468v29.904h6.426c2.646,0,4.326-0.546,5.544-1.806
		C332.371,190.3,332.917,188.41,332.917,184.882"/>
</g>
<g>
	<defs>
		<path id="SVGID_3_" d="M267.389,246.687c2.45,0,4.876-0.094,7.291-0.238c0.364-0.608,0.713-1.229,1.064-1.845
			c0.351-0.618,0.72-1.223,1.059-1.846c-3.109,0.245-6.241,0.407-9.414,0.407c-13.756,0-26.959-2.384-39.247-6.72
			c-1.069,0.078-2.155,0.134-3.279,0.134c-0.521,0-1.009-0.041-1.518-0.058c-1.949-0.058-3.831-0.202-5.609-0.455
			C232.909,242.87,249.706,246.687,267.389,246.687 M86.908,235.077c0.174,0.396,0.355,0.789,0.536,1.185
			c7.475,16.356,18.99,30.484,33.301,41.084c3.023,2.238,6.178,4.304,9.436,6.218c-16.13-13.95-30.132-30.283-41.404-48.486H86.908z
			 M95.063,235.077h-2.095c13.623,21.482,31.077,40.314,51.455,55.459c2.048,0.818,4.126,1.577,6.235,2.269
			c1.854,0.609,3.727,1.174,5.626,1.682c-23.597-15.488-43.757-35.753-59.124-59.409H95.063z M103.445,235.077h-2.096
			c16.73,25.124,39.026,46.231,65.119,61.597c1.544,0.253,3.101,0.465,4.668,0.652c1.468,0.173,2.945,0.313,4.431,0.426
			c-28.096-14.961-52.131-36.547-69.982-62.675H103.445z M158.088,235.077h-2.466c23.068,23.395,53.415,39.607,87.35,44.924
			c0.708-0.478,1.391-0.987,2.086-1.481c0.704-0.5,1.418-0.989,2.109-1.506c-33.417-4.416-63.462-19.591-86.524-41.937H158.088z
			 M168.352,235.077h-2.598c22.965,21.198,52.564,35.322,85.305,38.882c0.619-0.511,1.213-1.05,1.821-1.573
			c0.626-0.542,1.263-1.07,1.877-1.624c-31.919-2.739-60.928-15.739-83.712-35.685H168.352z M112.057,235.047
			c-0.378,0.008-0.752,0.029-1.131,0.029h-1.013c18.817,26.809,44.286,48.642,74.043,63.014c1.349-0.004,2.69-0.05,4.027-0.104
			c1.266-0.05,2.522-0.131,3.776-0.226c-31.16-13.665-57.917-35.494-77.577-62.768C113.478,235.029,112.767,235.037,112.057,235.047
			 M120.22,234.354c-0.65,0.106-1.307,0.193-1.969,0.274c20.414,27.668,48.362,49.442,80.795,62.351
			c1.134-0.165,2.257-0.361,3.379-0.562c1.109-0.197,2.217-0.395,3.314-0.626c-33.545-12.119-62.525-33.827-83.592-61.801
			C121.509,234.121,120.871,234.25,120.22,234.354 M238.687,234.177c-0.96,0.367-1.956,0.694-2.988,0.982
			c10.072,2.899,20.696,4.484,31.69,4.484c3.813,0,7.581-0.197,11.3-0.562c0.305-0.618,0.601-1.243,0.894-1.868
			c0.293-0.624,0.573-1.254,0.854-1.884c-4.283,0.503-8.631,0.791-13.048,0.791c-8.965,0-17.674-1.094-26.028-3.105
			C240.505,233.439,239.611,233.823,238.687,234.177 M127.683,232.476c-0.586,0.207-1.179,0.403-1.783,0.583
			c21.661,28.267,51.608,49.859,86.197,61.165c1.002-0.277,2.008-0.543,2.997-0.849c0.995-0.308,1.971-0.656,2.954-0.991
			c-35.576-10.485-66.436-31.986-88.626-60.548C128.857,232.069,128.268,232.27,127.683,232.476 M176.304,232.639v2.328
			c22.529,18.673,50.885,30.549,81.898,32.525c0.545-0.538,1.07-1.095,1.602-1.645c0.546-0.562,1.093-1.126,1.626-1.702
			c-32.477-1.372-62.091-13.903-85.126-33.835V232.639z M134.194,229.352c-0.496,0.317-1.005,0.621-1.527,0.91
			c22.661,28.909,54.413,50.38,90.953,60.044c0.898-0.366,1.79-0.744,2.675-1.133c0.888-0.389,1.774-0.782,2.649-1.195
			c-37.535-8.836-70.217-30.294-93.306-59.641C135.166,228.687,134.692,229.034,134.194,229.352 M247.465,228.934
			c-0.578,0.505-1.173,0.998-1.804,1.461c7.02,1.445,14.287,2.204,21.728,2.204c4.965,0,9.843-0.366,14.63-1.019
			c0.248-0.621,0.501-1.241,0.738-1.869c0.234-0.622,0.463-1.246,0.686-1.874c-5.234,0.812-10.594,1.241-16.054,1.241
			c-6.26,0-12.383-0.586-18.341-1.651C248.544,227.947,248.018,228.451,247.465,228.934 M139.524,224.728
			c-0.387,0.454-0.789,0.892-1.21,1.312c23.45,29.863,57.027,51.439,95.554,59.46c0.799-0.431,1.579-0.89,2.365-1.338
			c0.793-0.453,1.596-0.893,2.375-1.364c-39.609-7.194-74.178-28.931-97.946-59.47C140.309,223.818,139.914,224.272,139.524,224.728
			 M176.304,223.233v2.42c23.429,21.205,54.297,34.331,88.173,35.049c0.484-0.571,0.968-1.142,1.441-1.725
			c0.462-0.566,0.909-1.148,1.36-1.727c-35.239-0.028-67.269-13.914-90.974-36.448V223.233z M267.389,222.034
			c-4.683,0-9.283-0.353-13.79-0.996c-0.284,0.564-0.59,1.115-0.915,1.659c-0.328,0.549-0.658,1.095-1.028,1.62
			c5.128,0.81,10.381,1.238,15.733,1.238c5.917,0,11.707-0.543,17.345-1.526c0.195-0.622,0.36-1.258,0.544-1.886
			c0.183-0.625,0.364-1.254,0.536-1.884C279.845,221.411,273.69,222.034,267.389,222.034 M143.38,218.236
			c-0.238,0.633-0.526,1.224-0.812,1.816c3.734,4.886,7.756,9.538,12.027,13.95v-2.548v-2.551c-3.746-4.06-7.275-8.317-10.57-12.763
			C143.828,216.855,143.633,217.568,143.38,218.236 M267.389,214.989c-3.875,0-7.686-0.272-11.433-0.751
			c-0.116,0.583-0.278,1.151-0.43,1.721c-0.154,0.577-0.324,1.146-0.515,1.71c4.053,0.539,8.179,0.844,12.378,0.844
			c6.642,0,13.118-0.708,19.371-2.03c0.148-0.635,0.305-1.269,0.441-1.909c0.134-0.63,0.258-1.262,0.381-1.894
			C281.086,214.174,274.333,214.989,267.389,214.989 M99.882,215.643v0.649h0.363h2.035c-0.826-1.487-1.612-2.995-2.398-4.506
			V215.643z M176.304,213.376v2.549c23.311,23.341,55.536,37.806,91.085,37.806c0.859,0,1.705-0.047,2.561-0.063
			c0.425-0.599,0.862-1.188,1.276-1.793c0.402-0.589,0.784-1.194,1.174-1.791c-1.665,0.064-3.33,0.127-5.011,0.127
			c-35.874,0-68.246-15.165-91.085-39.384V213.376z M267.389,207.947c-3.723,0-7.383-0.271-10.978-0.749
			c0.03,0.523,0.072,1.036,0.072,1.58c0,0.069-0.01,0.135-0.01,0.202c-0.004,0.592-0.045,1.18-0.085,1.766
			c3.606,0.46,7.272,0.722,11.001,0.722c7.196,0,14.181-0.896,20.868-2.558c0.096-0.62,0.168-1.246,0.254-1.868
			c0.087-0.632,0.166-1.264,0.241-1.899C281.934,206.961,274.776,207.947,267.389,207.947 M145.055,208.404
			c0,0.024-0.004,0.048-0.004,0.07c-0.002,0.979-0.067,1.908-0.15,2.824c3.018,4.271,6.255,8.376,9.694,12.303v-2.686v-2.688
			c-3.529-4.26-6.792-8.742-9.825-13.387C144.943,206.04,145.055,207.235,145.055,208.404 M176.304,202.924v2.686
			c5.225,5.897,11.009,11.284,17.278,16.079l1.005-1.45l1.005-1.451c-7.104-5.448-13.588-11.661-19.288-18.553V202.924z
			 M99.882,197.759v1.876v4.267c1.998,4.226,4.166,8.349,6.468,12.391h2.034h2.035c-3.489-5.974-6.652-12.152-9.451-18.533H99.882z
			 M106.777,197.759h-1.936c2.847,6.339,6.035,12.492,9.579,18.413c0.65-0.071,1.26-0.189,1.831-0.354
			c0.596-0.172,1.151-0.384,1.661-0.648c-3.392-5.601-6.443-11.423-9.198-17.41H106.777z M112.585,197.759
			c2.449,5.188,5.14,10.238,8.079,15.127c0.411-0.538,0.755-1.116,1.032-1.74c0.322-0.721,0.58-1.476,0.72-2.28
			c-2.002-3.447-3.913-6.954-5.67-10.551c-0.664-0.214-1.39-0.356-2.171-0.438c-0.456-0.049-0.894-0.117-1.39-0.117H112.585z
			 M267.389,200.902c-4.282,0-8.455-0.441-12.545-1.127c0.254,0.64,0.484,1.298,0.683,1.981c0.171,0.594,0.321,1.206,0.447,1.836
			c3.729,0.539,7.539,0.832,11.415,0.832c7.541,0,14.83-1.08,21.745-3.052c0.052-0.622,0.102-1.245,0.143-1.871
			s0.097-1.248,0.127-1.878C282.432,199.74,275.046,200.902,267.389,200.902 M267.389,193.858c-6.442,0-12.655-0.952-18.572-2.616
			c0.826,0.752,1.597,1.56,2.32,2.413c0.607,0.716,1.183,1.461,1.702,2.255c4.701,0.964,9.567,1.471,14.55,1.471
			c7.714,0,15.135-1.241,22.11-3.488c0.006-0.464,0.035-0.923,0.035-1.39c0-0.166-0.012-0.327-0.013-0.491
			c-0.003-0.622-0.032-1.237-0.047-1.857C282.533,192.517,275.122,193.858,267.389,193.858 M149.425,188.618h-1.982
			c2.187,4.11,4.567,8.104,7.152,11.95v-3.258v-3.258c-1.095-1.783-2.147-3.596-3.159-5.434H149.425z M176.304,188.618v2.979v2.945
			c6.13,8.014,13.297,15.19,21.297,21.346l1.005-1.451l1.005-1.45c-8.936-6.895-16.788-15.115-23.269-24.369H176.304z
			 M182.852,188.618h-2.181c5.95,8.095,13.009,15.319,20.95,21.47l1.005-1.45l1.005-1.451c-6.932-5.388-13.164-11.629-18.536-18.569
			H182.852z M132.778,186.784c-0.413,0.304-0.839,0.593-1.279,0.868c-0.338,0.199-0.812,0.45-1.331,0.626
			c0,0,0.599-0.022,1.525,0.242c0.808,0.277,1.58,0.585,2.304,0.934c1.04,0.501,1.987,1.078,2.861,1.709
			c-0.926-1.823-1.815-3.666-2.665-5.531C133.739,186.034,133.272,186.421,132.778,186.784 M188.223,184.032v2.863
			c9.845,12.577,22.62,22.753,37.302,29.502c1.118-0.025,2.237-0.165,3.302-0.439c0.853-0.219,1.659-0.53,2.387-0.941
			c-17.401-7.015-32.301-18.927-42.991-34.021V184.032z M137.957,181.128c-0.361,0.586-0.745,1.155-1.163,1.704
			c4.728,10.651,10.724,20.615,17.801,29.709v-2.849v-3.012c-6.169-8.494-11.424-17.689-15.564-27.474
			C138.709,179.868,138.344,180.503,137.957,181.128 M99.882,180.133v0.094h0.032h1.863c-0.666-1.999-1.299-4.012-1.895-6.04
			V180.133z M216.079,171.21c0,3.345,3.568,5.519,8.571,7.664c-3.073-2.446-5.905-5.167-8.515-8.095
			C216.125,170.929,216.079,171.056,216.079,171.21 M246.607,169.836l-0.81,1.561c6.568,3.08,13.868,4.851,21.592,4.851
			c7.156,0,13.964-1.491,20.151-4.156c-0.117-0.594-0.238-1.186-0.364-1.777c-0.126-0.589-0.271-1.171-0.408-1.757
			c-5.925,2.657-12.473,4.168-19.379,4.168c-7.139,0-13.89-1.625-19.972-4.453L246.607,169.836z M118.633,175.007
			c0.3-0.963,0.447-1.997,0.447-3.046c0-0.757-0.11-1.479-0.275-2.174c-0.094-0.308-0.175-0.62-0.265-0.927
			c-0.515-1.373-1.427-2.531-2.786-3.338C116.609,168.728,117.582,171.884,118.633,175.007 M218.925,166.001
			c-0.498,0.334-0.932,0.727-1.321,1.164c11.96,14.149,29.829,23.171,49.785,23.171c7.715,0,15.087-1.415,21.96-3.882
			c-0.034-0.611-0.093-1.215-0.138-1.824c-0.045-0.608-0.084-1.217-0.14-1.821c-6.756,2.546-14.043,4.006-21.682,4.006
			c-18.758,0-35.556-8.435-46.867-21.673C219.949,165.377,219.42,165.671,218.925,166.001 M177.65,166.188
			c-0.485,0.524-0.862,1.138-1.084,1.875c0.584,1.232,1.201,2.445,1.835,3.65h1.98h2.004c-1.189-2.162-2.279-4.383-3.304-6.641
			C178.54,165.384,178.057,165.75,177.65,166.188 M102.74,164.324h-1.81c1.272,5.404,2.8,10.708,4.573,15.903h1.863h1.863
			c-1.815-5.191-3.377-10.496-4.677-15.903H102.74z M109.984,164.324h-1.81c1.317,5.355,2.893,10.606,4.725,15.741
			c0.614-0.108,1.181-0.27,1.698-0.487c0.577-0.241,1.099-0.538,1.558-0.894c-1.658-4.667-3.117-9.428-4.342-14.281
			c-0.338-0.028-0.649-0.079-1.014-0.079H109.984z M224.482,164.261c10.633,11.657,25.904,19.031,42.907,19.031
			c7.517,0,14.681-1.479,21.28-4.084c-0.075-0.596-0.142-1.196-0.227-1.789c-0.085-0.594-0.172-1.187-0.266-1.777
			c-6.412,2.649-13.427,4.128-20.787,4.128c-14.641,0-27.925-5.815-37.735-15.216c-0.912-0.157-1.849-0.249-2.799-0.302
			c-0.412-0.023-0.823-0.054-1.241-0.054C225.24,164.198,224.861,164.232,224.482,164.261 M184.223,163.605
			c-0.606,0.063-1.208,0.156-1.81,0.277c1.226,2.681,2.575,5.293,4.042,7.831c0,0,1.061,1.836,1.768,2.944
			c10.666,16.984,26.657,30.3,45.625,37.612c0.244-0.505,0.415-1.068,0.521-1.687c0.072-0.419,0.154-0.828,0.154-1.303
			c0-0.19-0.041-0.371-0.067-0.557c-8.512-3.359-16.392-7.972-23.406-13.623c-7.015-3.651-13.487-8.603-15.915-16.553
			c-3.482-4.695-6.511-9.741-9.034-15.072C185.493,163.496,184.868,163.538,184.223,163.605 M141.416,168.956
			c0,0.521-0.059,1.04-0.094,1.561c-0.08,1.216-0.236,2.427-0.504,3.619c1.732,4.457,3.694,8.8,5.872,13.015v-3.857v-4.257
			c-2.334-5.201-4.342-10.579-5.998-16.106C141.167,164.792,141.416,166.8,141.416,168.956 M267.389,165.683
			c-5.97,0-11.624-1.332-16.73-3.661l-0.811,1.564l-0.81,1.562c5.594,2.578,11.796,4.056,18.351,4.056
			c6.621,0,12.88-1.509,18.517-4.135c-0.155-0.576-0.324-1.147-0.489-1.717c-0.164-0.573-0.315-1.151-0.488-1.719
			C279.614,164.2,273.679,165.683,267.389,165.683 M140.692,162.931c-0.126-0.488-0.266-0.965-0.422-1.433
			C140.408,161.977,140.548,162.454,140.692,162.931 M190.733,160.88v0.424v2.393v1.053c1.075,2.074,2.186,4.125,3.421,6.097
			c0.022-1.035,0.099-2.044,0.228-3.032c0.12-0.915,0.278-1.811,0.486-2.684c-1.541-2.786-2.918-5.671-4.135-8.639V160.88z
			 M267.389,158.638c-4.802,0-9.359-1.037-13.489-2.866l-0.81,1.563l-0.811,1.562c4.619,2.079,9.724,3.263,15.11,3.263
			c5.905,0,11.472-1.426,16.426-3.895c-0.191-0.56-0.368-1.125-0.569-1.68c-0.2-0.555-0.42-1.1-0.63-1.649
			C278.045,157.286,272.877,158.638,267.389,158.638 M91.763,140.317c-0.53,0.926-1.053,1.858-1.555,2.802
			c0.081,0.811,0.199,1.612,0.291,2.419h1.778h1.779c-0.306-2.623-0.544-5.262-0.73-7.919
			C92.785,138.504,92.278,139.413,91.763,140.317 M98.262,130.281c-0.578,0.79-1.147,1.587-1.704,2.392
			c0.185,4.335,0.55,8.62,1.055,12.865h1.779h1.777c-0.698-5.755-1.106-11.597-1.2-17.516
			C99.392,128.769,98.82,129.52,98.262,130.281 M258.705,125.318c0,4.78,3.896,8.667,8.684,8.667c1.368,0,2.646-0.346,3.798-0.91
			c-0.332-0.486-0.684-0.959-1.025-1.439c-0.352-0.497-0.699-0.997-1.06-1.488c-0.538,0.191-1.109,0.315-1.713,0.315
			c-2.843,0-5.155-2.308-5.155-5.145c0-0.992,0.296-1.91,0.784-2.698c-0.4-0.452-0.793-0.914-1.201-1.36
			c-0.398-0.433-0.816-0.849-1.22-1.277C259.43,121.459,258.705,123.295,258.705,125.318 M105.287,121.646
			c-0.621,0.684-1.214,1.394-1.818,2.095c-0.005,0.526-0.04,1.047-0.04,1.577c0,6.85,0.474,13.589,1.297,20.22h1.778h1.78
			c-0.843-6.629-1.326-13.368-1.326-20.22c0-1.872,0.078-3.727,0.142-5.582C106.494,120.37,105.877,120.995,105.287,121.646
			 M251.647,125.318c0,8.663,7.061,15.711,15.742,15.711c2.753,0,5.304-0.772,7.557-2.014c-0.296-0.503-0.581-1.013-0.885-1.51
			c-0.307-0.502-0.637-0.987-0.953-1.484c-1.715,0.917-3.642,1.485-5.719,1.485c-6.734,0-12.213-5.468-12.213-12.188
			c0-3.013,1.142-5.739,2.963-7.868c-0.418-0.413-0.853-0.81-1.279-1.218c-0.422-0.403-0.84-0.811-1.269-1.207
			C253.167,117.789,251.647,121.364,251.647,125.318 M112.692,114.25c-0.65,0.588-1.273,1.203-1.907,1.806
			c-0.181,3.067-0.297,6.15-0.297,9.262c0,6.865,0.492,13.612,1.355,20.246c0.6,0.011,1.197,0.023,1.784,0.051
			c0.608,0.029,1.201,0.075,1.794,0.124c-0.897-6.687-1.404-13.494-1.404-20.421c0-4.283,0.221-8.511,0.569-12.705
			C113.954,113.159,113.31,113.69,112.692,114.25 M244.589,125.318c0,12.546,10.228,22.754,22.8,22.754
			c3.972,0,7.706-1.022,10.961-2.811c-0.264-0.527-0.532-1.049-0.805-1.569c-0.273-0.521-0.527-1.054-0.808-1.57
			c-2.771,1.542-5.956,2.428-9.348,2.428c-10.626,0-19.271-8.629-19.271-19.232c0-4.852,1.823-9.277,4.805-12.663
			c-0.446-0.385-0.883-0.775-1.334-1.152c-0.451-0.377-0.907-0.747-1.365-1.116C246.726,114.388,244.589,119.603,244.589,125.318
			 M120.37,107.93c-0.672,0.502-1.319,1.033-1.977,1.549c-0.551,5.207-0.848,10.488-0.848,15.839c0,7.077,0.531,14.031,1.488,20.849
			c0.613,0.097,1.224,0.195,1.818,0.315c0.622,0.125,1.232,0.267,1.833,0.418c-1.052-7.046-1.61-14.249-1.61-21.582
			c0-6.368,0.456-12.627,1.251-18.781C121.674,107.001,121.01,107.451,120.37,107.93 M237.532,125.318
			c0,16.429,13.393,29.799,29.857,29.799c5.031,0,9.768-1.261,13.931-3.463c-0.228-0.542-0.477-1.072-0.713-1.608
			c-0.238-0.537-0.482-1.071-0.727-1.604c-3.719,2.009-7.973,3.153-12.491,3.153c-14.517,0-26.328-11.787-26.328-26.277
			c0-6.535,2.416-12.507,6.386-17.109c-0.471-0.355-0.952-0.698-1.428-1.045c-0.479-0.348-0.962-0.686-1.447-1.026
			C240.187,111.326,237.532,118.015,237.532,125.318 M230.473,125.318c0,7.286,2.158,14.067,5.83,19.791
			c0.877,0.185,1.729,0.386,2.544,0.606c1.015,0.276,1.971,0.577,2.889,0.896c-4.824-5.778-7.734-13.202-7.734-21.293
			c0-8.037,2.865-15.417,7.63-21.178c-0.493-0.323-0.989-0.638-1.487-0.952c-0.499-0.315-0.984-0.646-1.487-0.952
			C233.548,108.558,230.473,116.581,230.473,125.318 M128.231,102.602c-0.678,0.417-1.343,0.854-2.01,1.286
			c-1.062,6.992-1.618,14.147-1.618,21.43c0,7.743,0.644,15.338,1.842,22.751c0.658,0.249,1.311,0.503,1.933,0.785
			c0.685,0.312,1.334,0.657,1.974,1.014c-1.431-7.976-2.22-16.171-2.22-24.55c0-8.155,0.748-16.136,2.105-23.91
			C129.565,101.802,128.893,102.194,128.231,102.602 M223.415,125.318c0,6.724,1.568,13.077,4.288,18.778
			c0.673,0.023,1.352,0.04,1.999,0.086c0.704,0.052,1.38,0.126,2.054,0.202c-3.065-5.683-4.812-12.174-4.812-19.066
			c0-9.375,3.247-17.991,8.639-24.85c-0.516-0.29-1.021-0.597-1.543-0.878c-0.523-0.282-1.061-0.539-1.591-0.814
			C226.807,106.157,223.415,115.338,223.415,125.318 M136.208,98.164c-0.665,0.334-1.33,0.668-1.987,1.017
			c-1.665,8.461-2.56,17.195-2.56,26.137c0,9.396,0.967,18.57,2.801,27.432c0.873,0.768,1.668,1.602,2.388,2.491
			c1.486,1.833,2.644,3.919,3.42,6.257c-3.303-11.501-5.08-23.635-5.08-36.18c0-9.672,1.077-19.092,3.066-28.177
			C137.566,97.47,136.89,97.823,136.208,98.164 M216.357,125.318c0,6.768,1.357,13.219,3.769,19.133
			c0.595-0.084,1.194-0.155,1.8-0.213c0.618-0.057,1.244-0.092,1.874-0.122c-2.508-5.768-3.914-12.12-3.914-18.798
			c0-10.548,3.512-20.268,9.37-28.152c-0.541-0.259-1.097-0.494-1.644-0.742c-0.547-0.249-1.091-0.501-1.644-0.743
			C219.947,104.042,216.357,114.258,216.357,125.318 M144.297,94.516c-0.666,0.267-1.338,0.52-1.996,0.801
			c-2.32,9.632-3.581,19.669-3.581,30.001c0,16.357,3.112,31.994,8.724,46.395h1.897h1.896c-5.777-14.355-8.989-30.004-8.989-46.395
			c0-10.913,1.419-21.499,4.066-31.595C145.637,93.979,144.967,94.249,144.297,94.516 M209.299,125.318
			c0,7.316,1.422,14.294,3.912,20.747c0.551-0.188,1.124-0.343,1.691-0.506c0.565-0.162,1.126-0.329,1.706-0.466
			c-2.409-6.139-3.78-12.794-3.78-19.775c0-11.527,3.631-22.21,9.777-31.021c-0.566-0.223-1.128-0.453-1.699-0.668
			c-0.57-0.214-1.144-0.421-1.72-0.625C212.947,102.243,209.299,113.363,209.299,125.318 M152.419,91.612
			c-0.683,0.21-1.35,0.452-2.028,0.676c-2.983,10.51-4.614,21.58-4.614,33.03c0,16.007,3.151,31.287,8.818,45.293v-1.53
			c0-1.009,0.083-1.94,0.167-2.867c0.122-1.328,0.309-2.587,0.587-3.756c-3.9-11.685-6.043-24.164-6.043-37.14
			c0-11.917,1.797-23.421,5.108-34.272C153.75,91.237,153.077,91.408,152.419,91.612 M202.241,125.318
			c0,8.391,1.655,16.391,4.569,23.763c0.507-0.311,1.014-0.621,1.545-0.904c0.517-0.277,1.052-0.533,1.589-0.782
			c-2.657-6.865-4.174-14.29-4.174-22.077c0-12.345,3.697-23.827,9.995-33.47c-0.577-0.182-1.161-0.351-1.742-0.524
			c-0.583-0.173-1.172-0.334-1.759-0.499C205.951,100.838,202.241,112.64,202.241,125.318 M195.183,125.318
			c0,10.078,2.102,19.673,5.862,28.391c0.429-0.455,0.89-0.883,1.353-1.309c0.461-0.424,0.93-0.841,1.423-1.235
			c-3.272-7.986-5.109-16.702-5.109-25.847c0-12.973,3.696-25.07,9.995-35.424c-0.601-0.144-1.205-0.28-1.809-0.415
			c-0.604-0.135-1.2-0.293-1.809-0.418C198.833,99.727,195.183,112.091,195.183,125.318 M160.49,89.494
			c-0.676,0.152-1.351,0.302-2.022,0.466c-3.64,11.142-5.633,23.019-5.633,35.358c0,11.042,1.609,21.709,4.548,31.817
			c0.387-0.706,0.813-1.368,1.264-1.996c0.428-0.591,0.876-1.156,1.355-1.683c-2.367-8.989-3.638-18.418-3.638-28.138
			c0-12.707,2.182-24.908,6.144-36.283C161.829,89.173,161.163,89.344,160.49,89.494 M188.125,125.318
			c0,6.942,0.908,13.675,2.599,20.096c0.001,0,0.009,0,0.009,0v0.029c1.389,5.265,3.317,10.312,5.708,15.09
			c0.303-0.664,0.647-1.301,1.004-1.93c0.359-0.633,0.747-1.247,1.16-1.845c-4.419-9.588-6.951-20.214-6.951-31.44
			c0-13.41,3.554-25.992,9.716-36.922c-0.628-0.104-1.251-0.222-1.881-0.317c-0.625-0.093-1.258-0.156-1.885-0.238
			C191.561,99.002,188.125,111.766,188.125,125.318 M168.504,88.013c-0.677,0.097-1.349,0.204-2.02,0.314
			c-4.261,11.537-6.591,23.996-6.591,36.991c0,8.766,1.083,17.279,3.079,25.441c0.508-0.375,1.037-0.71,1.571-1.04
			c0.524-0.322,1.054-0.63,1.599-0.911c-1.759-7.553-2.72-15.41-2.72-23.49c0-13.245,2.526-25.903,7.078-37.558
			C169.834,87.842,169.166,87.917,168.504,88.013 M181.067,125.318c0,6.792,0.816,13.392,2.312,19.735
			c0.274-0.004,0.566-0.016,0.829-0.016c0.341,0,0.66,0.006,0.981,0.012c0.653,0.01,1.266,0.028,1.823,0.055
			c-1.568-6.343-2.417-12.966-2.417-19.786c0-13.664,3.361-26.551,9.27-37.917c-0.633-0.06-1.272-0.096-1.908-0.144
			c-0.636-0.05-1.269-0.108-1.908-0.145C184.312,98.633,181.067,111.602,181.067,125.318 M176.417,87.187
			c-0.654,0.044-1.306,0.093-1.957,0.148c-4.826,11.722-7.509,24.544-7.509,37.983c0,7.58,0.876,14.957,2.481,22.06
			c0.558-0.201,1.117-0.389,1.681-0.559c0.566-0.172,1.13-0.346,1.699-0.487c-1.511-6.771-2.332-13.797-2.332-21.014
			c0-13.591,2.837-26.53,7.93-38.277C177.741,87.076,177.082,87.141,176.417,87.187 M182.326,86.943
			c-5.326,11.712-8.317,24.697-8.317,38.375c0,6.984,0.8,13.782,2.265,20.331c0.591-0.092,1.176-0.181,1.753-0.25
			c0.597-0.07,1.191-0.134,1.769-0.181c-1.461-6.406-2.258-13.06-2.258-19.9c0-13.715,3.112-26.714,8.65-38.349
			c-0.64-0.014-1.274-0.044-1.916-0.047c-0.182-0.001-0.361-0.015-0.542-0.015C183.259,86.907,182.796,86.937,182.326,86.943"/>
	</defs>
	<clipPath id="SVGID_4_">
		<use xlink:href="#SVGID_3_"  overflow="visible"/>
	</clipPath>
	
		<linearGradient id="SVGID_5_" gradientUnits="userSpaceOnUse" x1="0" y1="385.52" x2="1" y2="385.52" gradientTransform="matrix(-283.175 283.175 283.175 283.175 -108891.1172 -109067.3984)">
		<stop  offset="0" style="stop-color:#86B8D8"/>
		<stop  offset="1" style="stop-color:#9CBA31"/>
	</linearGradient>
	<polygon clip-path="url(#SVGID_4_)" fill="url(#SVGID_5_)" points="395.125,192.499 188.221,399.403 -18.684,192.499 
		188.221,-14.406 	"/>
</g>
</svg>
